# xmcd CD database file
#
# Track frame offsets:
#	150
#	10551
#	23555
#	35828
#	50348
#	63190
#	75054
#	87927
#	101000
#	114587
#	134448
#	150393
#	168351
#	186460
#	203360
#	224317
#
# Disc length: 3169 seconds
#
# Revision: 0
# Processed by: cddbd v1.5.2PL0 Copyright (c) Steve Scherf et al.
# Submitted via: CDex 1.51
#
DISCID=bf0c5f10
DTITLE=Lightnin' Hopkins - Great Blues Masters Vol.2
DYEAR=2006
DGENRE=Blues
TTITLE0=Don't Keep My Baby Long
TTITLE1=Jake Head Boogie
TTITLE2=Lonesome Dog Blues
TTITLE3=Tell Me Pretty Mama
TTITLE4=Santa Fe
TTITLE5=Bad Luck And Trouble
TTITLE6=One Kind Favor
TTITLE7=Another Fool In Town
TTITLE8=Mojo Hand
TTITLE9=Shine On,Moon!
TTITLE10=Coffee For Mama
TTITLE11=Found My Baby Crying
TTITLE12=Back Door Friend
TTITLE13=Fishing Clothes
TTITLE14=Morning Blues
TTITLE15=Katie Mae
EXTD=YEAR: 2006
EXTT0=
EXTT1=
EXTT2=
EXTT3=
EXTT4=
EXTT5=
EXTT6=
EXTT7=
EXTT8=
EXTT9=
EXTT10=
EXTT11=
EXTT12=
EXTT13=
EXTT14=
EXTT15=
PLAYORDER=
